<svg xmlns="http://www.w3.org/2000/svg" width="37.5" viewBox="0 0 37.5 37.5" height="37.5" version="1.0"><defs><clipPath id="a"><path d="M 0 0 L 37.007812 0 L 37.007812 37.007812 L 0 37.007812 Z M 0 0"/></clipPath><clipPath id="b"><path d="M 0.46875 5 L 28 5 L 28 37 L 0.46875 37 Z M 0.46875 5"/></clipPath><clipPath id="c"><path d="M 24 13 L 37.007812 13 L 37.007812 24 L 24 24 Z M 24 13"/></clipPath></defs><g clip-path="url(#a)" fill="#FFF"><path d="M 0 0 L 37.5 0 L 37.5 45 L 0 45 Z M 0 0"/><path d="M 0 0 L 37.5 0 L 37.5 37.5 L 0 37.5 Z M 0 0"/><path d="M 0 0 L 37.5 0 L 37.5 37.5 L 0 37.5 Z M 0 0"/></g><g clip-path="url(#b)"><path d="M 0.601562 12.847656 C 0.789062 9.871094 1.941406 7.417969 4.605469 5.828125 C 5.757812 5.136719 6.957031 5.335938 7.777344 6.40625 C 9.015625 8.023438 10.242188 9.648438 11.457031 11.285156 C 12.316406 12.441406 12.140625 13.746094 11.015625 14.648438 C 10.199219 15.300781 9.355469 15.925781 8.457031 16.523438 C 9.644531 20.050781 11.460938 23.164062 14.222656 25.691406 C 15.035156 26.433594 15.902344 27.109375 16.777344 27.769531 C 16.988281 27.925781 17.117188 27.925781 17.324219 27.765625 C 18.035156 27.210938 18.753906 26.671875 19.484375 26.140625 C 20.773438 25.210938 22.035156 25.367188 22.996094 26.613281 C 24.242188 28.226562 25.464844 29.855469 26.675781 31.492188 C 27.421875 32.503906 27.335938 33.679688 26.421875 34.535156 C 24.265625 36.558594 21.761719 37.273438 18.871094 36.425781 C 16.007812 35.585938 13.519531 34.074219 11.304688 32.117188 C 7.308594 28.574219 4.242188 24.332031 1.96875 19.527344 C 0.972656 17.421875 0.453125 15.183594 0.601562 12.847656"/></g><g clip-path="url(#c)"><path d="M 25.347656 15.253906 C 26.539062 16.09375 27.550781 16.8125 28.585938 17.546875 C 28.105469 18.089844 27.542969 18.734375 26.996094 19.359375 C 26.433594 20.007812 25.847656 20.671875 25.347656 21.242188 Z M 26.296875 21.980469 C 26.792969 21.417969 27.375 20.75 27.945312 20.097656 C 28.503906 19.453125 29.085938 18.792969 29.566406 18.246094 C 29.839844 18.4375 30.105469 18.628906 30.375 18.824219 C 30.449219 18.875 30.550781 18.933594 30.675781 18.933594 C 30.804688 18.933594 30.90625 18.871094 30.972656 18.824219 C 31.242188 18.632812 31.507812 18.445312 31.777344 18.253906 C 32.269531 18.8125 32.867188 19.488281 33.441406 20.144531 C 34 20.777344 34.566406 21.429688 35.058594 21.980469 Z M 34.398438 19.414062 C 33.835938 18.773438 33.253906 18.113281 32.761719 17.554688 C 33.589844 16.964844 34.421875 16.375 35.253906 15.785156 L 35.992188 15.261719 L 35.992188 21.222656 C 35.503906 20.671875 34.945312 20.035156 34.398438 19.414062 Z M 34.835938 14.613281 L 30.675781 17.558594 L 26.519531 14.613281 Z M 24.539062 13.804688 C 24.28125 14.0625 24.140625 14.417969 24.140625 14.808594 L 24.140625 16.941406 C 24.140625 18.53125 24.140625 20.121094 24.140625 21.714844 C 24.140625 22.621094 24.707031 23.1875 25.613281 23.1875 C 27.714844 23.1875 29.8125 23.1875 31.914062 23.1875 L 35.78125 23.191406 C 36.621094 23.191406 37.207031 22.605469 37.207031 21.773438 C 37.207031 19.460938 37.207031 17.152344 37.207031 14.84375 C 37.207031 13.96875 36.632812 13.402344 35.746094 13.402344 C 35.046875 13.402344 30.890625 13.402344 30.890625 13.402344 L 25.539062 13.402344 C 25.152344 13.402344 24.796875 13.546875 24.539062 13.804688"/></g><path d="M 15.175781 6.3125 C 15.035156 5.003906 15.523438 3.707031 16.515625 2.753906 C 17.394531 1.917969 18.636719 1.4375 19.921875 1.4375 C 21.136719 1.4375 22.285156 1.851562 23.148438 2.605469 C 24.585938 3.855469 25.054688 5.699219 24.378906 7.410156 C 24.105469 8.101562 23.65625 8.691406 23.015625 9.222656 L 22.886719 9.328125 C 22.886719 9.328125 23.058594 9.667969 23.109375 9.765625 C 23.21875 9.980469 23.328125 10.195312 23.433594 10.410156 C 23.554688 10.652344 23.496094 10.742188 23.421875 10.820312 C 23.355469 10.886719 23.292969 10.914062 23.214844 10.914062 C 23.160156 10.914062 23.09375 10.902344 23.015625 10.871094 C 22.691406 10.75 22.363281 10.625 22.050781 10.507812 C 21.800781 10.414062 21.550781 10.324219 21.304688 10.230469 C 21.199219 10.191406 21.101562 10.171875 21.003906 10.171875 C 20.960938 10.171875 20.917969 10.175781 20.871094 10.183594 C 20.535156 10.242188 20.203125 10.273438 19.886719 10.273438 C 18.957031 10.273438 18.074219 10.023438 17.265625 9.527344 C 16.082031 8.800781 15.320312 7.628906 15.175781 6.3125 Z M 13.910156 5.871094 C 13.910156 7.148438 14.359375 8.351562 15.207031 9.359375 C 16.015625 10.320312 17.144531 11.019531 18.382812 11.324219 C 18.890625 11.449219 19.40625 11.511719 19.914062 11.511719 C 20.242188 11.511719 20.570312 11.484375 20.894531 11.433594 C 20.910156 11.433594 20.921875 11.429688 20.933594 11.429688 C 20.972656 11.429688 21.011719 11.441406 21.070312 11.460938 C 21.253906 11.53125 21.4375 11.601562 21.625 11.667969 C 21.953125 11.792969 22.285156 11.917969 22.617188 12.042969 C 22.816406 12.113281 23.019531 12.152344 23.21875 12.152344 C 23.648438 12.152344 24.050781 11.972656 24.351562 11.644531 C 24.78125 11.179688 24.863281 10.503906 24.566406 9.917969 C 24.4375 9.664062 24.425781 9.582031 24.601562 9.375 C 25.578125 8.246094 26.042969 6.824219 25.910156 5.378906 C 25.773438 3.886719 25.023438 2.519531 23.796875 1.535156 C 22.722656 0.667969 21.347656 0.191406 19.9375 0.191406 C 18.058594 0.191406 16.320312 0.996094 15.164062 2.402344 C 14.332031 3.40625 13.910156 4.574219 13.910156 5.871094"/><path d="M 22.6875 4.75 C 23.28125 4.746094 23.726562 5.203125 23.703125 5.855469 C 23.683594 6.375 23.210938 6.785156 22.6875 6.773438 C 22.117188 6.773438 21.660156 6.324219 21.660156 5.761719 C 21.664062 5.203125 22.117188 4.753906 22.6875 4.75"/><path d="M 19.921875 4.75 C 20.476562 4.75 20.933594 5.195312 20.9375 5.746094 C 20.945312 6.3125 20.496094 6.773438 19.929688 6.773438 C 19.351562 6.777344 18.902344 6.339844 18.902344 5.765625 C 18.898438 5.195312 19.34375 4.75 19.921875 4.75"/><path d="M 17.152344 4.75 C 17.726562 4.75 18.167969 5.191406 18.167969 5.765625 C 18.164062 6.339844 17.71875 6.773438 17.140625 6.773438 C 16.585938 6.773438 16.128906 6.316406 16.128906 5.765625 C 16.128906 5.203125 16.582031 4.75 17.152344 4.75"/></svg>