<svg xmlns="http://www.w3.org/2000/svg" width="37.5" viewBox="0 0 37.5 37.5" height="37.5" version="1.0"><defs><clipPath id="a"><path d="M 0 0 L 37.007812 0 L 37.007812 37.007812 L 0 37.007812 Z M 0 0"/></clipPath><clipPath id="b"><path d="M 18 0 L 36.75 0 L 36.75 36.75 L 18 36.75 Z M 18 0"/></clipPath></defs><g clip-path="url(#a)"><path fill="#FFF" d="M 0 0 L 37.5 0 L 37.5 45 L 0 45 Z M 0 0"/><path fill="#FFF" d="M 0 0 L 37.5 0 L 37.5 37.5 L 0 37.5 Z M 0 0"/><path fill="#F6E5EB" d="M 0 0 L 37.5 0 L 37.5 37.5 L 0 37.5 Z M 0 0"/></g><g clip-path="url(#b)"><path d="M 30.230469 17.78125 C 30.554688 17.78125 30.824219 18.046875 30.824219 18.375 L 30.824219 23.117188 L 32.007812 23.117188 L 32.007812 19.558594 C 32.007812 19.234375 32.273438 18.96875 32.601562 18.96875 C 32.925781 18.96875 33.195312 19.234375 33.195312 19.558594 L 33.195312 23.117188 L 34.378906 23.117188 L 34.378906 20.746094 C 34.378906 20.417969 34.644531 20.152344 34.972656 20.152344 C 35.296875 20.152344 35.566406 20.417969 35.566406 20.746094 L 35.566406 27.890625 C 35.566406 28.167969 35.5 28.441406 35.378906 28.6875 L 34.378906 30.683594 L 34.378906 32.007812 L 24.894531 32.007812 L 24.894531 30.625 L 23.375 28.601562 C 23.191406 28.351562 23.074219 28.058594 23.035156 27.753906 L 22.613281 24.394531 C 22.539062 23.808594 22.328125 23.238281 22 22.746094 L 21.390625 21.832031 C 21.355469 21.777344 21.339844 21.71875 21.339844 21.65625 C 21.339844 21.480469 21.480469 21.339844 21.65625 21.339844 C 22.910156 21.339844 23.996094 22.230469 24.238281 23.457031 L 25 27.265625 L 26.445312 27.265625 L 26.953125 26.253906 C 27.15625 25.84375 27.265625 25.386719 27.265625 24.925781 L 27.265625 12.449219 C 27.265625 12.121094 27.53125 11.855469 27.859375 11.855469 C 28.183594 11.855469 28.453125 12.121094 28.453125 12.449219 L 28.453125 23.117188 L 29.636719 23.117188 L 29.636719 18.375 C 29.636719 18.046875 29.902344 17.78125 30.230469 17.78125 Z M 35.566406 35.566406 L 23.710938 35.566406 L 23.710938 33.195312 L 35.566406 33.195312 Z M 27.660156 10.691406 C 25.957031 9.539062 24.621094 7.933594 23.808594 6.039062 C 23.742188 5.882812 23.710938 5.722656 23.710938 5.496094 C 23.710938 5.171875 23.839844 4.855469 24.070312 4.625 L 24.894531 3.800781 C 25.207031 3.488281 25.769531 3.488281 26.082031 3.800781 L 27.125 4.847656 C 27.214844 4.9375 27.265625 5.058594 27.265625 5.1875 L 27.265625 5.265625 C 27.265625 5.449219 27.164062 5.613281 27 5.695312 C 26.433594 5.976562 26.082031 6.546875 26.082031 7.183594 L 26.082031 7.261719 C 26.082031 7.707031 26.253906 8.125 26.570312 8.441406 L 27.125 8.996094 C 27.441406 9.308594 27.859375 9.484375 28.304688 9.484375 L 28.382812 9.484375 C 29.015625 9.484375 29.585938 9.132812 29.871094 8.566406 C 29.953125 8.398438 30.117188 8.296875 30.300781 8.296875 L 30.378906 8.296875 C 30.507812 8.296875 30.625 8.347656 30.71875 8.441406 L 31.761719 9.484375 C 31.917969 9.640625 32.007812 9.855469 32.007812 10.078125 C 32.007812 10.296875 31.917969 10.515625 31.761719 10.667969 L 30.9375 11.492188 C 30.574219 11.855469 29.976562 11.953125 29.515625 11.726562 L 29.464844 11.699219 C 29.183594 11.09375 28.570312 10.667969 27.859375 10.667969 C 27.792969 10.667969 27.726562 10.679688 27.660156 10.691406 Z M 21.929688 14.226562 C 20.949219 14.226562 20.152344 13.429688 20.152344 12.449219 L 20.152344 2.964844 C 20.152344 1.980469 20.949219 1.183594 21.929688 1.183594 L 33.785156 1.183594 C 34.769531 1.183594 35.566406 1.980469 35.566406 2.964844 L 35.566406 12.449219 C 35.566406 13.429688 34.769531 14.226562 33.785156 14.226562 L 29.636719 14.226562 L 29.636719 12.988281 C 29.777344 13.015625 29.921875 13.039062 30.066406 13.039062 C 30.703125 13.039062 31.324219 12.785156 31.777344 12.332031 L 32.601562 11.507812 C 32.984375 11.125 33.195312 10.617188 33.195312 10.078125 C 33.195312 9.539062 32.984375 9.027344 32.601562 8.644531 L 31.554688 7.601562 C 31.242188 7.285156 30.824219 7.113281 30.378906 7.113281 L 30.300781 7.113281 C 29.664062 7.113281 29.09375 7.464844 28.808594 8.03125 C 28.730469 8.195312 28.566406 8.296875 28.382812 8.296875 L 28.304688 8.296875 C 28.171875 8.296875 28.054688 8.246094 27.964844 8.15625 L 27.40625 7.601562 C 27.316406 7.507812 27.265625 7.390625 27.265625 7.261719 L 27.265625 7.183594 C 27.265625 7 27.367188 6.835938 27.53125 6.753906 C 28.101562 6.46875 28.453125 5.898438 28.453125 5.265625 L 28.453125 5.1875 C 28.453125 4.742188 28.277344 4.324219 27.964844 4.007812 L 26.917969 2.964844 C 26.15625 2.199219 24.820312 2.199219 24.058594 2.964844 L 23.234375 3.789062 C 22.78125 4.238281 22.523438 4.863281 22.523438 5.550781 C 22.523438 5.882812 22.589844 6.203125 22.71875 6.503906 C 23.542969 8.421875 24.839844 10.070312 26.496094 11.320312 C 26.242188 11.628906 26.082031 12.015625 26.082031 12.449219 L 26.082031 14.226562 Z M 33.785156 15.410156 C 35.421875 15.410156 36.75 14.082031 36.75 12.449219 L 36.75 2.964844 C 36.75 1.328125 35.421875 0 33.785156 0 L 21.929688 0 C 20.296875 0 18.96875 1.328125 18.96875 2.964844 L 18.96875 12.449219 C 18.96875 14.082031 20.296875 15.410156 21.929688 15.410156 L 26.082031 15.410156 L 26.082031 24.925781 C 26.082031 25.199219 26.019531 25.46875 25.898438 25.710938 L 25.402344 23.222656 C 25.046875 21.445312 23.472656 20.152344 21.65625 20.152344 C 20.828125 20.152344 20.152344 20.828125 20.152344 21.65625 C 20.152344 21.953125 20.242188 22.242188 20.40625 22.488281 L 21.015625 23.402344 C 21.242188 23.742188 21.386719 24.136719 21.4375 24.539062 L 21.855469 27.902344 C 21.921875 28.414062 22.117188 28.898438 22.425781 29.3125 L 23.710938 31.019531 L 23.710938 32.007812 L 22.523438 32.007812 L 22.523438 36.75 L 36.75 36.75 L 36.75 32.007812 L 35.566406 32.007812 L 35.566406 30.964844 L 36.4375 29.21875 C 36.640625 28.808594 36.75 28.351562 36.75 27.890625 L 36.75 20.746094 C 36.75 19.765625 35.953125 18.96875 34.972656 18.96875 C 34.738281 18.96875 34.515625 19.015625 34.308594 19.097656 C 34.105469 18.34375 33.421875 17.78125 32.601562 17.78125 C 32.367188 17.78125 32.144531 17.832031 31.9375 17.910156 C 31.734375 17.15625 31.050781 16.597656 30.230469 16.597656 C 30.019531 16.597656 29.824219 16.640625 29.636719 16.707031 L 29.636719 15.410156 L 33.785156 15.410156"/></g><path d="M 16.597656 31.414062 C 16.597656 32.398438 15.800781 33.195312 14.820312 33.195312 L 2.964844 33.195312 C 1.980469 33.195312 1.183594 32.398438 1.183594 31.414062 L 1.183594 21.929688 C 1.183594 20.949219 1.980469 20.152344 2.964844 20.152344 L 14.820312 20.152344 C 15.800781 20.152344 16.597656 20.949219 16.597656 21.929688 Z M 14.820312 18.96875 L 2.964844 18.96875 C 1.328125 18.96875 0 20.296875 0 21.929688 L 0 31.414062 C 0 33.050781 1.328125 34.378906 2.964844 34.378906 L 14.820312 34.378906 C 16.453125 34.378906 17.78125 33.050781 17.78125 31.414062 L 17.78125 21.929688 C 17.78125 20.296875 16.453125 18.96875 14.820312 18.96875"/><path d="M 16.597656 12.449219 C 16.597656 13.429688 15.800781 14.226562 14.820312 14.226562 L 2.964844 14.226562 C 1.980469 14.226562 1.183594 13.429688 1.183594 12.449219 L 1.183594 2.964844 C 1.183594 1.980469 1.980469 1.183594 2.964844 1.183594 L 14.820312 1.183594 C 15.800781 1.183594 16.597656 1.980469 16.597656 2.964844 Z M 14.820312 0 L 2.964844 0 C 1.328125 0 0 1.328125 0 2.964844 L 0 12.449219 C 0 14.082031 1.328125 15.410156 2.964844 15.410156 L 14.820312 15.410156 C 16.453125 15.410156 17.78125 14.082031 17.78125 12.449219 L 17.78125 2.964844 C 17.78125 1.328125 16.453125 0 14.820312 0"/><path d="M 8.890625 9.484375 C 8.238281 9.484375 7.707031 8.953125 7.707031 8.296875 L 7.707031 7.113281 C 7.707031 6.460938 8.238281 5.925781 8.890625 5.925781 C 9.542969 5.925781 10.078125 6.460938 10.078125 7.113281 L 10.078125 8.296875 C 10.078125 8.953125 9.542969 9.484375 8.890625 9.484375 Z M 8.890625 2.371094 C 6.277344 2.371094 4.148438 4.5 4.148438 7.113281 L 4.148438 8.296875 C 4.148438 10.914062 6.277344 13.039062 8.890625 13.039062 L 8.890625 11.855469 C 6.929688 11.855469 5.335938 10.257812 5.335938 8.296875 L 5.335938 7.113281 C 5.335938 5.152344 6.929688 3.554688 8.890625 3.554688 C 10.851562 3.554688 12.449219 5.152344 12.449219 7.113281 L 12.449219 10.078125 C 12.449219 10.402344 12.179688 10.667969 11.855469 10.667969 C 11.527344 10.667969 11.261719 10.402344 11.261719 10.078125 L 11.261719 7.113281 C 11.261719 5.804688 10.199219 4.742188 8.890625 4.742188 C 7.582031 4.742188 6.519531 5.804688 6.519531 7.113281 L 6.519531 8.296875 C 6.519531 9.605469 7.582031 10.667969 8.890625 10.667969 C 9.335938 10.667969 9.746094 10.539062 10.101562 10.328125 C 10.226562 11.1875 10.957031 11.855469 11.855469 11.855469 C 12.835938 11.855469 13.632812 11.058594 13.632812 10.078125 L 13.632812 7.113281 C 13.632812 4.5 11.503906 2.371094 8.890625 2.371094"/><path d="M 6.027344 27.019531 L 3.554688 28.996094 L 3.554688 24.546875 Z M 10.496094 26.601562 C 9.640625 27.457031 8.144531 27.457031 7.285156 26.601562 L 4.394531 23.710938 L 13.386719 23.710938 Z M 11.753906 27.019531 L 14.226562 24.546875 L 14.226562 28.996094 Z M 6.914062 27.828125 C 7.492188 28.230469 8.171875 28.453125 8.890625 28.453125 C 9.609375 28.453125 10.292969 28.230469 10.867188 27.828125 L 13.128906 29.636719 L 4.652344 29.636719 Z M 2.371094 30.824219 L 15.410156 30.824219 L 15.410156 22.523438 L 2.371094 22.523438 L 2.371094 30.824219"/></svg>