<svg xmlns="http://www.w3.org/2000/svg" width="37.5" viewBox="0 0 37.5 37.5" height="37.5" version="1.0"><defs><clipPath id="a"><path d="M 0 0 L 37.007812 0 L 37.007812 37.007812 L 0 37.007812 Z M 0 0"/></clipPath><clipPath id="b"><path d="M 5.542969 1.542969 L 31.792969 1.542969 L 31.792969 36.042969 L 5.542969 36.042969 Z M 5.542969 1.542969"/></clipPath></defs><g clip-path="url(#a)"><path fill="#FFF" d="M 0 0 L 37.5 0 L 37.5 45 L 0 45 Z M 0 0"/><path fill="#FFF" d="M 0 0 L 37.5 0 L 37.5 37.5 L 0 37.5 Z M 0 0"/><path fill="#F6E5EB" d="M 0 0 L 37.5 0 L 37.5 37.5 L 0 37.5 Z M 0 0"/></g><g clip-path="url(#b)"><path d="M 31.203125 36.042969 L 6.128906 36.042969 C 5.816406 36.042969 5.5625 35.785156 5.5625 35.46875 L 5.5625 2.117188 C 5.5625 1.800781 5.816406 1.542969 6.128906 1.542969 L 31.203125 1.542969 C 31.519531 1.542969 31.773438 1.800781 31.773438 2.117188 L 31.773438 35.46875 C 31.773438 35.785156 31.519531 36.042969 31.203125 36.042969 Z M 6.699219 34.890625 L 30.636719 34.890625 L 30.636719 2.691406 L 6.699219 2.691406 Z M 6.699219 34.890625"/></g><path d="M 12.398438 10.167969 C 10.828125 10.167969 9.550781 8.878906 9.550781 7.292969 C 9.550781 5.707031 10.828125 4.417969 12.398438 4.417969 C 13.96875 4.417969 15.25 5.707031 15.25 7.292969 C 15.25 8.878906 13.96875 10.167969 12.398438 10.167969 Z M 12.398438 5.566406 C 11.457031 5.566406 10.691406 6.339844 10.691406 7.292969 C 10.691406 8.242188 11.457031 9.015625 12.398438 9.015625 C 13.339844 9.015625 14.109375 8.242188 14.109375 7.292969 C 14.109375 6.339844 13.339844 5.566406 12.398438 5.566406 Z M 12.398438 5.566406"/><path d="M 16.386719 15.34375 L 15.25 15.34375 C 15.25 13.757812 13.96875 12.46875 12.398438 12.46875 C 10.828125 12.46875 9.550781 13.757812 9.550781 15.34375 L 8.410156 15.34375 C 8.410156 13.121094 10.199219 11.316406 12.398438 11.316406 C 14.597656 11.316406 16.386719 13.121094 16.386719 15.34375 Z M 16.386719 15.34375"/><path d="M 28.355469 10.742188 L 18.097656 10.742188 C 17.785156 10.742188 17.527344 10.484375 17.527344 10.167969 L 17.527344 5.566406 C 17.527344 5.25 17.785156 4.992188 18.097656 4.992188 L 28.355469 4.992188 C 28.671875 4.992188 28.925781 5.25 28.925781 5.566406 L 28.925781 10.167969 C 28.925781 10.484375 28.671875 10.742188 28.355469 10.742188 Z M 18.667969 9.59375 L 27.785156 9.59375 L 27.785156 6.140625 L 18.667969 6.140625 Z M 18.667969 9.59375"/><path d="M 19.238281 33.167969 L 8.980469 33.167969 C 8.664062 33.167969 8.410156 32.910156 8.410156 32.59375 L 8.410156 29.140625 C 8.410156 28.824219 8.664062 28.566406 8.980469 28.566406 L 19.238281 28.566406 C 19.550781 28.566406 19.808594 28.824219 19.808594 29.140625 L 19.808594 32.59375 C 19.808594 32.910156 19.550781 33.167969 19.238281 33.167969 Z M 9.550781 32.015625 L 18.667969 32.015625 L 18.667969 29.71875 L 9.550781 29.71875 Z M 9.550781 32.015625"/><path d="M 17.527344 11.890625 L 28.925781 11.890625 L 28.925781 13.042969 L 17.527344 13.042969 Z M 17.527344 11.890625"/><path d="M 17.527344 14.191406 L 28.925781 14.191406 L 28.925781 15.34375 L 17.527344 15.34375 Z M 17.527344 14.191406"/><path d="M 20.945312 29.140625 L 28.925781 29.140625 L 28.925781 30.292969 L 20.945312 30.292969 Z M 20.945312 29.140625"/><path d="M 20.945312 31.441406 L 28.925781 31.441406 L 28.925781 32.59375 L 20.945312 32.59375 Z M 20.945312 31.441406"/><path d="M 8.410156 17.066406 L 28.925781 17.066406 L 28.925781 18.21875 L 8.410156 18.21875 Z M 8.410156 17.066406"/><path d="M 8.410156 19.367188 L 28.925781 19.367188 L 28.925781 20.515625 L 8.410156 20.515625 Z M 8.410156 19.367188"/><path d="M 8.410156 21.667969 L 28.925781 21.667969 L 28.925781 22.816406 L 8.410156 22.816406 Z M 8.410156 21.667969"/><path d="M 8.410156 23.96875 L 28.925781 23.96875 L 28.925781 25.117188 L 8.410156 25.117188 Z M 8.410156 23.96875"/><path d="M 8.410156 26.265625 L 28.925781 26.265625 L 28.925781 27.417969 L 8.410156 27.417969 Z M 8.410156 26.265625"/></svg>