<svg xmlns="http://www.w3.org/2000/svg" width="37.5" viewBox="0 0 37.5 37.5" height="37.5" version="1.0"><defs><clipPath id="a"><path d="M 0 0 L 37.007812 0 L 37.007812 37.007812 L 0 37.007812 Z M 0 0"/></clipPath><clipPath id="b"><path d="M 4.359375 0 L 32.859375 0 L 32.859375 37.007812 L 4.359375 37.007812 Z M 4.359375 0"/></clipPath></defs><g clip-path="url(#a)" fill="#FFF"><path d="M 0 0 L 37.5 0 L 37.5 45 L 0 45 Z M 0 0"/><path d="M 0 0 L 37.5 0 L 37.5 37.5 L 0 37.5 Z M 0 0"/><path d="M 0 0 L 37.5 0 L 37.5 37.5 L 0 37.5 Z M 0 0"/></g><g clip-path="url(#b)"><path d="M 32.226562 37.5 L 4.992188 37.5 C 4.652344 37.5 4.375 37.21875 4.375 36.875 L 4.375 0.625 C 4.375 0.28125 4.652344 0 4.992188 0 L 32.226562 0 C 32.566406 0 32.84375 0.28125 32.84375 0.625 L 32.84375 36.875 C 32.84375 37.21875 32.566406 37.5 32.226562 37.5 Z M 5.613281 36.25 L 31.605469 36.25 L 31.605469 1.25 L 5.613281 1.25 Z M 5.613281 36.25"/></g><path d="M 11.800781 9.375 C 10.09375 9.375 8.707031 7.972656 8.707031 6.25 C 8.707031 4.527344 10.09375 3.125 11.800781 3.125 C 13.507812 3.125 14.894531 4.527344 14.894531 6.25 C 14.894531 7.972656 13.507812 9.375 11.800781 9.375 Z M 11.800781 4.375 C 10.777344 4.375 9.945312 5.214844 9.945312 6.25 C 9.945312 7.285156 10.777344 8.125 11.800781 8.125 C 12.824219 8.125 13.660156 7.285156 13.660156 6.25 C 13.660156 5.214844 12.824219 4.375 11.800781 4.375 Z M 11.800781 4.375"/><path d="M 16.132812 15 L 14.894531 15 C 14.894531 13.277344 13.507812 11.875 11.800781 11.875 C 10.09375 11.875 8.707031 13.277344 8.707031 15 L 7.46875 15 C 7.46875 12.589844 9.414062 10.625 11.800781 10.625 C 14.191406 10.625 16.132812 12.589844 16.132812 15 Z M 16.132812 15"/><path d="M 29.128906 10 L 17.992188 10 C 17.648438 10 17.371094 9.71875 17.371094 9.375 L 17.371094 4.375 C 17.371094 4.03125 17.648438 3.75 17.992188 3.75 L 29.128906 3.75 C 29.472656 3.75 29.75 4.03125 29.75 4.375 L 29.75 9.375 C 29.75 9.71875 29.472656 10 29.128906 10 Z M 18.609375 8.75 L 28.511719 8.75 L 28.511719 5 L 18.609375 5 Z M 18.609375 8.75"/><path d="M 19.226562 34.375 L 8.089844 34.375 C 7.746094 34.375 7.46875 34.09375 7.46875 33.75 L 7.46875 30 C 7.46875 29.65625 7.746094 29.375 8.089844 29.375 L 19.226562 29.375 C 19.570312 29.375 19.847656 29.65625 19.847656 30 L 19.847656 33.75 C 19.847656 34.09375 19.570312 34.375 19.226562 34.375 Z M 8.707031 33.125 L 18.609375 33.125 L 18.609375 30.625 L 8.707031 30.625 Z M 8.707031 33.125"/><path d="M 17.371094 11.25 L 29.75 11.25 L 29.75 12.5 L 17.371094 12.5 Z M 17.371094 11.25"/><path d="M 17.371094 13.75 L 29.75 13.75 L 29.75 15 L 17.371094 15 Z M 17.371094 13.75"/><path d="M 21.085938 30 L 29.75 30 L 29.75 31.25 L 21.085938 31.25 Z M 21.085938 30"/><path d="M 21.085938 32.5 L 29.75 32.5 L 29.75 33.75 L 21.085938 33.75 Z M 21.085938 32.5"/><path d="M 7.46875 16.875 L 29.75 16.875 L 29.75 18.125 L 7.46875 18.125 Z M 7.46875 16.875"/><path d="M 7.46875 19.375 L 29.75 19.375 L 29.75 20.625 L 7.46875 20.625 Z M 7.46875 19.375"/><path d="M 7.46875 21.875 L 29.75 21.875 L 29.75 23.125 L 7.46875 23.125 Z M 7.46875 21.875"/><path d="M 7.46875 24.375 L 29.75 24.375 L 29.75 25.625 L 7.46875 25.625 Z M 7.46875 24.375"/><path d="M 7.46875 26.875 L 29.75 26.875 L 29.75 28.125 L 7.46875 28.125 Z M 7.46875 26.875"/></svg>