<svg xmlns="http://www.w3.org/2000/svg" width="37.5" viewBox="0 0 37.5 37.5" height="37.5" version="1.0"><defs><clipPath id="a"><path d="M 0 0 L 37.007812 0 L 37.007812 37.007812 L 0 37.007812 Z M 0 0"/></clipPath><clipPath id="b"><path d="M 1.957031 3.75 L 35.707031 3.75 L 35.707031 23 L 1.957031 23 Z M 1.957031 3.75"/></clipPath></defs><g clip-path="url(#a)"><path fill="#FFF" d="M 0 0 L 37.5 0 L 37.5 45 L 0 45 Z M 0 0"/><path fill="#FFF" d="M 0 0 L 37.5 0 L 37.5 37.5 L 0 37.5 Z M 0 0"/><path fill="#F6E5EB" d="M 0 0 L 37.5 0 L 37.5 37.5 L 0 37.5 Z M 0 0"/></g><path d="M 8.8125 24.285156 C 6.484375 24.285156 4.382812 23.308594 2.882812 21.746094 L 2.882812 29.75 C 2.882812 31.542969 4.332031 33 6.117188 33 L 31.546875 33 C 33.332031 33 34.78125 31.542969 34.78125 29.75 L 34.78125 21.746094 C 33.28125 23.308594 31.179688 24.285156 28.847656 24.285156 L 22.25 24.285156 L 22.25 26.710938 C 22.25 27.457031 21.648438 28.0625 20.90625 28.0625 L 16.757812 28.0625 C 16.015625 28.0625 15.414062 27.457031 15.414062 26.710938 L 15.414062 24.285156 Z M 8.8125 24.285156"/><g clip-path="url(#b)"><path d="M 32.863281 9.171875 L 28.300781 9.171875 C 28.296875 8.535156 27.78125 8.015625 27.144531 8.015625 L 26.371094 8.015625 C 26.179688 8.015625 26.027344 7.863281 26.027344 7.671875 L 26.027344 6.753906 C 26.027344 5.09375 24.691406 3.75 23.039062 3.75 L 14.625 3.75 C 12.972656 3.75 11.636719 5.09375 11.636719 6.753906 L 11.636719 7.671875 C 11.636719 7.863281 11.480469 8.015625 11.292969 8.015625 L 10.515625 8.015625 C 9.882812 8.015625 9.363281 8.535156 9.363281 9.171875 L 4.796875 9.171875 C 3.25 9.171875 1.992188 10.4375 1.992188 11.992188 L 1.992188 15.78125 C 1.992188 20.175781 5.535156 22.984375 9.90625 22.984375 L 15.414062 22.984375 L 15.414062 20.683594 C 15.414062 19.9375 16.015625 19.332031 16.757812 19.332031 L 20.90625 19.332031 C 21.648438 19.332031 22.25 19.9375 22.25 20.683594 L 22.25 22.984375 L 27.753906 22.984375 C 32.128906 22.984375 35.671875 20.175781 35.671875 15.78125 L 35.671875 11.992188 C 35.671875 10.4375 34.414062 9.171875 32.863281 9.171875 Z M 23.4375 8.015625 L 23.4375 9.171875 L 14.226562 9.171875 L 14.226562 6.753906 C 14.226562 6.53125 14.40625 6.351562 14.625 6.351562 L 23.039062 6.351562 C 23.257812 6.351562 23.4375 6.53125 23.4375 6.753906 Z M 23.4375 8.015625"/></g><path d="M 17.320312 26.761719 L 20.34375 26.761719 C 20.679688 26.761719 20.953125 26.488281 20.953125 26.148438 L 20.953125 21.25 C 20.953125 20.910156 20.679688 20.636719 20.34375 20.636719 L 17.320312 20.636719 C 16.980469 20.636719 16.707031 20.910156 16.707031 21.25 L 16.707031 26.148438 C 16.707031 26.488281 16.980469 26.761719 17.320312 26.761719 Z M 17.320312 26.761719"/></svg>