<svg xmlns="http://www.w3.org/2000/svg" width="37.5" viewBox="0 0 37.5 37.5" height="37.5" version="1.0"><defs><clipPath id="a"><path d="M 0 0 L 37.007812 0 L 37.007812 37.007812 L 0 37.007812 Z M 0 0"/></clipPath><clipPath id="b"><path d="M 0.777344 3.75 L 36.777344 3.75 L 36.777344 35.25 L 0.777344 35.25 Z M 0.777344 3.75"/></clipPath></defs><g clip-path="url(#a)" fill="#FFF"><path d="M 0 0 L 37.5 0 L 37.5 45 L 0 45 Z M 0 0"/><path d="M 0 0 L 37.5 0 L 37.5 37.5 L 0 37.5 Z M 0 0"/><path d="M 0 0 L 37.5 0 L 37.5 37.5 L 0 37.5 Z M 0 0"/></g><g clip-path="url(#b)"><path d="M 32.765625 9.144531 L 29.082031 9.144531 C 28.683594 8.480469 27.96875 8.023438 27.152344 7.996094 L 27.152344 7.941406 C 27.152344 5.628906 25.277344 3.75 22.972656 3.75 L 14.585938 3.75 C 12.28125 3.75 10.40625 5.628906 10.40625 7.941406 L 10.40625 7.996094 C 9.585938 8.023438 8.875 8.480469 8.476562 9.144531 L 4.792969 9.144531 C 2.589844 9.144531 0.796875 10.941406 0.796875 13.152344 L 0.796875 16.921875 C 0.796875 18.285156 1.09375 19.554688 1.683594 20.703125 L 1.683594 30.816406 C 1.683594 33.261719 3.667969 35.25 6.105469 35.25 L 31.453125 35.25 C 33.890625 35.25 35.875 33.261719 35.875 30.816406 L 35.875 20.703125 C 36.464844 19.554688 36.761719 18.285156 36.761719 16.921875 L 36.761719 13.152344 C 36.761719 10.941406 34.96875 9.144531 32.765625 9.144531 Z M 12.804688 8.855469 L 12.804688 7.941406 C 12.804688 6.957031 13.605469 6.15625 14.585938 6.15625 L 22.972656 6.15625 C 23.953125 6.15625 24.753906 6.957031 24.753906 7.941406 L 24.753906 8.855469 C 24.753906 8.953125 24.765625 9.050781 24.78125 9.144531 L 12.777344 9.144531 C 12.792969 9.050781 12.804688 8.953125 12.804688 8.855469 Z M 3.195312 13.152344 C 3.195312 12.269531 3.910156 11.550781 4.792969 11.550781 L 32.765625 11.550781 C 33.648438 11.550781 34.363281 12.269531 34.363281 13.152344 L 34.363281 16.921875 C 34.363281 17.976562 34.117188 18.949219 33.632812 19.804688 L 33.574219 19.910156 C 32.410156 21.644531 30.300781 22.710938 27.675781 22.710938 L 22.484375 22.710938 L 22.484375 22.441406 C 22.484375 21.507812 21.726562 20.746094 20.796875 20.746094 L 16.761719 20.746094 C 15.828125 20.746094 15.070312 21.507812 15.070312 22.441406 L 15.070312 22.710938 L 9.882812 22.710938 C 7.253906 22.710938 5.148438 21.644531 3.984375 19.910156 L 3.925781 19.804688 C 3.441406 18.949219 3.195312 17.976562 3.195312 16.921875 Z M 20.488281 22.75 L 20.488281 26.839844 L 17.070312 26.839844 L 17.070312 22.75 Z M 31.453125 32.847656 L 6.105469 32.847656 C 4.988281 32.847656 4.082031 31.9375 4.082031 30.816406 L 4.082031 22.882812 C 5.605469 24.039062 7.605469 24.714844 9.882812 24.714844 L 15.070312 24.714844 L 15.070312 27.152344 C 15.070312 28.085938 15.828125 28.84375 16.761719 28.84375 L 20.796875 28.84375 C 21.730469 28.84375 22.484375 28.085938 22.484375 27.152344 L 22.484375 24.714844 L 27.675781 24.714844 C 29.953125 24.714844 31.953125 24.039062 33.476562 22.882812 L 33.476562 30.816406 C 33.476562 31.9375 32.570312 32.847656 31.453125 32.847656 Z M 31.453125 32.847656"/></g></svg>